HIERARCHY
ROOT Hips
{
	OFFSET -3.958830 18.904000 13.208200
	CHANNELS 6 Xposition Yposition Zposition Zrotation Yrotation Xrotation 
	JOINT LHipJoint
	{
		OFFSET 0.000000 0.000000 0.000000
		CHANNELS 3 Zrotation Yrotation Xrotation
		JOINT LeftUpLeg
		{
			OFFSET 1.800000 -1.400000 0.085000
			CHANNELS 3 Zrotation Yrotation Xrotation
			JOINT LeftLeg
			{
				OFFSET 2.215000 -6.000000 0.000000
				CHANNELS 3 Zrotation Yrotation Xrotation
				JOINT LeftFoot
				{
					OFFSET 2.500000 -6.900000 0.000000
					CHANNELS 3 Zrotation Yrotation Xrotation
					JOINT LeftToeBase
					{
						OFFSET 0.200000 -0.500000 1.950000
						CHANNELS 3 Zrotation Yrotation Xrotation
						End Site
						{
							OFFSET 0.000000 0.000000 0.000000
						}
					}
				}
			}
		}
	}
	JOINT RHipJoint
	{
		OFFSET 0.000000 0.000000 0.000000
		CHANNELS 3 Zrotation Yrotation Xrotation
		JOINT RightUpLeg
		{
			OFFSET -1.800000 -1.400000 0.085000
			CHANNELS 3 Zrotation Yrotation Xrotation
			JOINT RightLeg
			{
				OFFSET -2.215000 -6.000000 0.000000
				CHANNELS 3 Zrotation Yrotation Xrotation
				JOINT RightFoot
				{
					OFFSET -2.500000 -6.900000 0.000000
					CHANNELS 3 Zrotation Yrotation Xrotation
					JOINT RightToeBase
					{
						OFFSET -0.200000 -0.500000 1.950000
						CHANNELS 3 Zrotation Yrotation Xrotation
						End Site
						{
							OFFSET 0.000000 0.000000 0.000000
						}
					}
				}
			}
		}
	}
	JOINT LowerBack
	{
		OFFSET 0.000000 0.000000 0.000000
		CHANNELS 3 Zrotation Yrotation Xrotation
		JOINT Spine
		{
			OFFSET -0.087000 1.940000 -0.288900
			CHANNELS 3 Zrotation Yrotation Xrotation
			JOINT Spine1
			{
				OFFSET 0.000000 1.950000 0.060000
				CHANNELS 3 Zrotation Yrotation Xrotation
				JOINT Neck
				{
					OFFSET 0.000000 0.000000 0.000000
					CHANNELS 3 Zrotation Yrotation Xrotation
					JOINT Neck1
					{
						OFFSET 0.000000 1.600000 0.340000
						CHANNELS 3 Zrotation Yrotation Xrotation
						JOINT Head
						{
							OFFSET 0.000000 1.667000 -0.240000
							CHANNELS 3 Zrotation Yrotation Xrotation
							End Site
							{
								OFFSET 0.000000 0.000000 0.000000
							}
						}
					}
				}
				JOINT LeftShoulder
				{
					OFFSET 0.000000 0.000000 0.000000
					CHANNELS 3 Zrotation Yrotation Xrotation
					JOINT LeftArm
					{
						OFFSET 2.700000 1.550000 -0.730000
						CHANNELS 3 Zrotation Yrotation Xrotation
						JOINT LeftForeArm
						{
							OFFSET 5.450000 0.000000 0.000000
							CHANNELS 3 Zrotation Yrotation Xrotation
							JOINT LeftHand
							{
								OFFSET 3.450000 0.000000 0.000000
								CHANNELS 3 Zrotation Yrotation Xrotation
								JOINT LeftHandIndex1
								{
									OFFSET 0.750000 0.000000 0.000000
									CHANNELS 3 Zrotation Yrotation Xrotation
									End Site
									{
										OFFSET 0.000000 0.000000 0.000000
									}
								}
							}
						}
					}
				}
				JOINT RightShoulder
				{
					OFFSET 0.000000 0.000000 0.000000
					CHANNELS 3 Zrotation Yrotation Xrotation
					JOINT RightArm
					{
						OFFSET -2.700000 1.550000 -0.730000
						CHANNELS 3 Zrotation Yrotation Xrotation
						JOINT RightForeArm
						{
							OFFSET -5.450000 0.000000 0.000000
							CHANNELS 3 Zrotation Yrotation Xrotation
							JOINT RightHand
							{
								OFFSET -3.450000 0.000000 0.000000
								CHANNELS 3 Zrotation Yrotation Xrotation
								JOINT RightHandIndex1
								{
									OFFSET -0.750000 0.000000 0.000000
									CHANNELS 3 Zrotation Yrotation Xrotation
									End Site
									{
										OFFSET 0.000000 0.000000 0.000000
									}
								}
							}
						}
					}
				}
			}
		}
	}
}
MOTION
Frames: 12
Frame Time: 0.016667
-11.327680 16.434560 6.022980 -1.266902 -17.743006 -3.491224 -15.820996 12.847588 5.278533 23.781434 -2.130928 -26.083630 -26.539687 9.544769 11.796930 0.222234 6.860080 1.690246 0.418430 0.215060 0.765160 17.607224 -8.706625 2.328915 -26.175730 1.692032 -7.957416 5.673042 -3.798659 1.221108 -0.658207 -3.513097 2.656500 -0.111620 -0.451350 0.304720 -1.736781 -5.703510 -9.178627 9.092190 3.676739 40.697758 1.684380 6.469815 15.543808 7.244755 -3.560222 -21.439731 -17.372761 16.445583 49.866345 -11.809860 16.777350 -18.109850 -17.950533 -30.626681 12.570825 -32.960365 -6.292724 -0.522112 11.010752 1.045616 -0.367937 -3.427598 3.082992 0.781090 -0.355320 0.560270 -0.194730 4.561195 37.247882 15.606803 45.061679 0.352690 -9.875024 -21.706797 -4.335934 0.546548 2.954957 -1.473862 0.080900 -0.157130 -0.080240 -0.295680 
-11.061520 16.508610 6.106040 -1.759129 -18.627202 -3.348498 -15.820739 13.315125 4.766754 20.228317 -1.901559 -22.790568 -24.895025 9.017680 10.810689 0.211384 6.426613 1.896585 0.305710 0.077350 0.647580 17.545145 -8.546809 2.604562 -25.343293 1.783778 -6.353237 5.847242 -3.461582 -1.864374 -0.667163 -3.654108 2.654278 -0.193730 -0.378660 0.302740 -1.601183 -6.423481 -9.085839 9.983688 3.465109 41.388430 1.650598 7.241125 11.883226 8.090604 -4.395981 -20.733046 -19.595898 17.627363 47.571033 -10.349730 16.937830 -15.950930 -17.251698 -26.621237 12.067263 -33.826082 -4.211551 -0.030459 8.525753 1.572049 -0.151675 -3.452924 3.077787 0.770130 -0.336110 0.499290 -0.206230 2.827128 34.143258 15.076390 46.047944 -1.801062 -10.468942 -21.982985 -2.634024 0.532019 2.947647 -1.424507 0.054270 -0.166470 -0.003400 -0.274050 
-10.788970 16.603400 6.173680 -2.415888 -19.172366 -3.752334 -15.870694 13.981732 4.436302 16.710847 -1.527918 -19.918103 -22.408264 7.936966 8.623219 0.147790 5.814806 2.172611 0.250450 0.002510 0.587790 17.446673 -8.522513 2.536201 -23.621131 1.639398 -4.706080 6.260657 -3.598177 -1.219241 -0.655469 -3.580018 2.733301 -0.244100 -0.362290 0.277280 -1.328371 -7.511108 -8.924631 10.644061 2.978751 44.276214 1.588184 8.347566 6.289330 9.483287 -5.439505 -19.883743 -23.051029 18.559792 45.553815 -10.540360 16.248630 -16.473460 -16.599257 -21.244837 10.683335 -33.707108 -2.176690 0.229522 5.154589 1.639524 -0.098126 -3.443662 3.007622 0.803860 -0.363410 0.483900 -0.209800 0.545484 30.303354 14.127338 46.559461 -3.857724 -10.949827 -22.256211 -0.690292 0.611928 2.943319 -1.330172 0.030670 -0.140580 0.036890 -0.267220 
-10.522390 16.697740 6.254870 -3.811397 -18.813923 -3.089009 -15.904035 14.610140 4.328486 13.756500 -1.207715 -18.876019 -19.465108 6.769034 6.097239 0.135938 5.117367 2.474528 0.170110 -0.027230 0.433670 17.372503 -8.648040 2.324971 -20.444418 1.419182 -3.821122 6.702994 -3.961885 1.701880 -0.600508 -3.355054 2.891509 -0.299520 -0.297410 0.274280 -1.127270 -8.457232 -8.773857 12.600067 1.402786 46.174065 0.599097 9.386426 -0.919395 11.054751 -5.661794 -19.641847 -24.733883 19.351612 46.350439 -9.375070 15.567530 -14.566580 -16.863293 -16.309522 9.379500 -31.617848 1.822561 -0.083507 1.058284 1.918268 -0.199948 -3.473751 2.948141 0.769000 -0.347180 0.475240 -0.176440 -0.762078 26.426615 13.370673 46.265170 -6.762211 -10.998299 -21.900612 0.910584 0.857699 2.955235 -1.230884 0.058350 -0.123090 0.074460 -0.188670 
-10.291650 16.793620 6.359600 -4.616201 -18.441924 -0.725655 -15.960157 15.119009 4.334144 10.540066 -1.401047 -19.830834 -16.419988 5.698827 3.834338 0.112813 4.334836 2.800847 0.202470 -0.021480 0.485420 17.289192 -8.796995 2.090778 -17.121565 1.488555 -5.325321 7.418623 -4.446170 6.808508 -0.523667 -3.010394 3.011944 -0.328430 -0.324210 0.260290 -0.884549 -9.231740 -8.635496 12.651092 1.568000 45.872195 1.288511 11.212968 -9.942080 11.519792 -5.813486 -17.487840 -24.094162 20.311424 46.750716 -8.299500 17.230560 -13.079730 -17.264441 -8.958844 6.260509 -27.970809 3.592525 -0.210605 -1.823563 5.114860 -0.440521 -3.496320 2.975216 0.752270 -0.387240 0.481780 -0.146660 0.205460 19.659478 12.080707 43.025769 -9.523358 -9.964749 -21.489575 2.862089 0.957260 3.023064 -1.200439 0.084130 -0.175040 -0.001640 -0.178210 
-10.048220 16.891550 6.447500 -6.934440 -17.226433 1.294253 -15.950580 15.416770 4.321656 8.961869 -1.259842 -21.143623 -13.443990 5.012853 2.634108 0.061988 3.790374 3.000306 0.215040 -0.004440 0.474270 17.295212 -8.916191 2.034923 -11.960813 1.889442 -6.447397 8.634683 -5.381017 13.468415 -0.491540 -3.058480 2.993488 -0.331630 -0.316270 0.272480 -0.896407 -9.558970 -8.503798 15.791407 -0.159486 45.059284 0.795112 11.879311 -14.657024 11.564976 -6.183623 -15.908371 -23.123910 20.580526 46.282143 -7.337170 18.160910 -11.349550 -16.931841 -3.884708 4.053663 -24.846106 5.080961 -0.475870 -2.133002 7.072955 -0.574972 -3.549857 3.027369 0.706460 -0.377140 0.462820 -0.128180 -0.057887 15.055777 11.076176 38.829158 -9.861113 -8.466634 -19.637705 2.758540 1.131619 3.076030 -1.181435 0.113020 -0.227060 -0.025700 -0.157040 
-9.813370 16.966520 6.488820 -8.398228 -15.876873 1.666199 -15.921125 15.516145 4.182172 7.592237 -1.016638 -21.619589 -10.863087 4.581096 2.252850 0.034530 3.379607 3.152217 0.229100 0.039340 0.445410 17.351935 -8.914938 2.183231 -7.083171 2.397657 -6.768819 9.739364 -6.467282 19.273740 -0.569391 -3.485562 2.861073 -0.328240 -0.312510 0.297600 -1.026241 -9.575968 -8.418913 18.230098 -1.614289 45.479278 0.389868 12.117492 -16.326150 10.997143 -6.611823 -14.763443 -22.057713 20.288448 44.860124 -8.037700 18.983810 -12.752200 -15.585783 -0.352018 2.592762 -21.682040 6.226152 -1.081371 -2.261276 5.160487 -0.665578 -3.546146 3.056411 0.678820 -0.367290 0.475000 -0.098460 -0.768677 11.886262 10.382799 35.023088 -9.235974 -7.271848 -16.845540 1.674693 1.258420 3.122394 -1.133003 0.149440 -0.254160 -0.047620 -0.125500 
-9.601970 17.038850 6.511080 -8.306545 -14.512143 1.213446 -15.955201 15.595970 4.045069 5.892010 -0.970669 -21.799295 -8.980548 4.379734 2.531236 -0.083809 3.191483 3.243485 0.107500 -0.136360 0.394980 17.352603 -8.801639 2.401337 -2.853191 2.600645 -6.432521 10.127791 -7.084126 22.304514 -0.589854 -3.801838 2.772970 -0.394800 -0.258830 0.263020 -0.991194 -9.726058 -8.481826 18.129111 -1.842708 45.434280 0.770514 12.535505 -16.574076 10.814465 -5.942670 -14.893480 -19.233449 18.825482 45.504695 -8.475230 19.219250 -11.714230 -14.275674 -0.109940 2.906141 -18.793805 9.392473 -1.835032 -2.547309 1.190667 -0.747313 -3.564249 2.985839 0.715000 -0.338680 0.404700 -0.148970 -1.794734 11.417720 10.699217 34.106201 -10.463335 -7.416059 -15.428268 1.427738 1.343794 3.105767 -1.037240 0.054640 -0.222370 0.042750 -0.173690 
-9.398890 17.091510 6.522990 -7.905911 -13.543254 1.240984 -16.014543 15.562246 3.978924 4.782771 -0.982171 -22.582179 -8.262599 4.310964 2.733024 -0.173185 3.150747 3.279226 -0.044060 -0.350150 0.310230 17.339484 -8.620748 2.642924 1.403946 2.691975 -6.532308 9.975884 -7.102775 23.039189 -0.552049 -3.846631 2.782350 -0.481890 -0.169990 0.247490 -0.900066 -9.803799 -8.630557 17.337376 -1.017644 44.324346 2.211645 13.356614 -15.574805 10.581771 -5.057973 -15.568446 -16.486021 16.967089 45.870316 -8.093650 18.785620 -9.005550 -12.148664 -1.034594 4.091252 -19.279993 11.701770 -2.385510 -0.196557 -1.348363 -0.610683 -3.636282 2.914889 0.734570 -0.283770 0.316890 -0.197300 -3.320179 12.019028 11.450835 33.311399 -12.308045 -7.632583 -13.151297 -0.223517 1.535556 3.108017 -0.929504 -0.038750 -0.194590 0.158520 -0.210120 
-9.222460 17.158450 6.529350 -5.297916 -12.744835 -0.211374 -16.085783 15.526053 3.926873 2.768904 -1.089676 -21.192166 -8.102672 4.195127 2.233684 -0.160014 3.060437 3.300171 -0.044460 -0.368490 0.348400 17.301954 -8.569808 2.725492 2.713504 2.022692 -5.208024 10.227328 -6.869066 20.826207 -0.556767 -3.704540 2.816023 -0.509040 -0.226040 0.264330 -0.752482 -9.770461 -8.714492 13.303151 1.107177 44.480307 4.341563 13.819234 -14.989546 9.874337 -4.317490 -15.401744 -14.658664 15.526418 46.784644 -9.110420 18.410240 -10.855410 -10.828156 -1.020164 4.292618 -16.898908 12.128426 -2.450046 -0.036837 -2.254407 -0.609429 -3.611604 2.932275 0.749710 -0.314500 0.338280 -0.238680 -3.200033 11.480229 11.654374 32.094520 -13.101153 -7.442204 -12.402516 -1.808724 1.720410 3.159511 -0.901598 -0.012960 -0.236300 0.165440 -0.232050 
-9.027770 17.176000 6.557580 -4.099392 -12.059731 -0.274986 -16.113028 15.419449 3.913262 2.012339 -1.157053 -21.243404 -8.453685 4.180824 1.817930 -0.250428 3.149323 3.311033 -0.153070 -0.507230 0.284180 17.310885 -8.471022 2.866058 4.882763 1.238978 -4.518013 9.827627 -6.167928 16.596958 -0.469211 -3.347462 2.968597 -0.536770 -0.127340 0.234870 -0.737132 -9.718102 -8.770710 11.629343 1.867561 44.145736 4.859177 14.471460 -16.532039 9.293990 -3.975194 -14.774155 -13.361715 14.606083 45.949265 -9.050510 17.910290 -10.985580 -8.165628 0.425670 3.743309 -13.126816 11.298233 -1.999743 -3.815368 -1.050085 -0.959390 -3.696688 2.812715 0.778390 -0.264310 0.271420 -0.262780 -4.546979 9.694066 11.281257 31.729285 -13.461007 -7.523272 -11.917497 -2.786656 1.867009 3.137261 -0.801928 -0.120930 -0.147730 0.255670 -0.256570 
-8.824790 17.196600 6.613910 -3.095223 -11.181775 0.700899 -16.156761 15.331487 3.940803 1.192626 -1.414937 -21.824859 -7.992514 3.889520 0.477253 -0.297133 3.091680 3.376002 -0.210760 -0.596390 0.247860 17.301869 -8.343373 2.963577 6.301222 0.666877 -4.773736 9.539791 -5.414572 12.028463 -0.384093 -2.964244 3.130575 -0.560610 -0.044730 0.207750 -0.688431 -9.806222 -8.835611 10.005496 2.613271 43.372807 5.392348 15.275325 -20.163124 8.927449 -4.287199 -14.189174 -13.605538 14.831722 44.918152 -7.164340 17.411760 -9.779520 -5.263683 3.094823 3.093385 -12.366457 12.320145 -2.354482 -2.346974 -5.827064 -0.619927 -3.698414 2.786410 0.785860 -0.236800 0.214180 -0.262870 -6.020343 7.411656 10.769051 30.910806 -13.817096 -7.501608 -11.903661 -4.108779 2.118433 3.161140 -0.736654 -0.185810 -0.088430 0.297970 -0.260090 
